# xmcd CD database file
#
# Track frame offsets:
#	150
#	18009
#	37177
#	59926
#	79940
#	92199
#	110474
#	132455
#	149285
#	171384
#	188501
#	197695
#
# Disc length: 2686 seconds
#
# Revision: 0
# Processed by: cddbd v1.5.2PL0 Copyright (c) Steve Scherf et al.
# Submitted via: CDex 1.70beta2
#
DISCID=ae0a7c0c
DTITLE=Catherine Kelly Quintet - Nothing's too good
DYEAR=2007
DGENRE=Jazz
TTITLE0=Tenderly
TTITLE1=Louisiana Sunday afternoon
TTITLE2=When I fall in love
TTITLE3=From now on
TTITLE4=Nothing's too good for my baby
TTITLE5=La pluie fait des claquettes
TTITLE6=Miss Celie's blues
TTITLE7=Them their eyes
TTITLE8=Willow weep for me
TTITLE9=Can't we be friends ?
TTITLE10=Too marvelous for words
TTITLE11=Easy to love
EXTD=YEAR: 2007
EXTT0=
EXTT1=
EXTT2=
EXTT3=
EXTT4=
EXTT5=
EXTT6=
EXTT7=
EXTT8=
EXTT9=
EXTT10=
EXTT11=
PLAYORDER=
